<mxfile host="Electron" modified="2023-07-23T16:31:30.840Z" agent="Mozilla/5.0 (X11; Linux x86_64) AppleWebKit/537.36 (KHTML, like Gecko) draw.io/21.6.5 Chrome/114.0.5735.243 Electron/25.3.1 Safari/537.36" etag="6GxGSQp1erh-0Y6_6W33" version="21.6.5" type="device">
  <diagram name="Page-1" id="nXqlTPuEWZttkAlKJWpj">
    <mxGraphModel dx="938" dy="581" grid="1" gridSize="10" guides="1" tooltips="1" connect="1" arrows="1" fold="1" page="1" pageScale="1" pageWidth="850" pageHeight="1100" math="1" shadow="0">
      <root>
        <mxCell id="0" />
        <mxCell id="1" parent="0" />
        <mxCell id="XnjCDIcHjmMH2OgmWB8k-35" value="" style="rounded=1;whiteSpace=wrap;html=1;strokeColor=#000099;arcSize=10;" parent="1" vertex="1">
          <mxGeometry x="80" y="60" width="420" height="340" as="geometry" />
        </mxCell>
        <mxCell id="XnjCDIcHjmMH2OgmWB8k-37" value="&lt;font color=&quot;#000099&quot;&gt;Multi-Headed Cross-Attention&lt;/font&gt;" style="rounded=1;whiteSpace=wrap;html=1;strokeColor=#000099;" parent="1" vertex="1">
          <mxGeometry x="170" y="71" width="240" height="30" as="geometry" />
        </mxCell>
        <mxCell id="0KHWkNFv0CEmFGJm_ItT-254" value="The decoder layer contains another attention mechanism that enables it to attend to different parts of the encoded sequence. The overall computational graph is similar to the one for self-attention except the key and the value vectors are computed based on the output from the last encoder layer. The output of the previously computed masked attention is used to compute the queries. Thus, the value vectors induces distribution over the translation of the source language to the target langauge. While key and query compute scores based on semantic simalarities.&amp;nbsp;" style="text;html=1;strokeColor=none;fillColor=none;align=left;verticalAlign=middle;whiteSpace=wrap;rounded=0;" parent="1" vertex="1">
          <mxGeometry x="100" y="101" width="395" height="130" as="geometry" />
        </mxCell>
        <mxCell id="0KHWkNFv0CEmFGJm_ItT-257" value="" style="group" parent="1" vertex="1" connectable="0">
          <mxGeometry x="153" y="240" width="272" height="133.55999999999995" as="geometry" />
        </mxCell>
        <mxCell id="0KHWkNFv0CEmFGJm_ItT-242" value="Encoder &lt;br&gt;Output" style="text;html=1;align=center;verticalAlign=middle;resizable=0;points=[];autosize=1;strokeColor=none;fillColor=none;rotation=0;" parent="0KHWkNFv0CEmFGJm_ItT-257" vertex="1">
          <mxGeometry y="66" width="70" height="40" as="geometry" />
        </mxCell>
        <mxCell id="0KHWkNFv0CEmFGJm_ItT-231" value="" style="endArrow=none;html=1;rounded=0;entryX=0;entryY=0.5;entryDx=0;entryDy=0;dashed=1;endFill=0;" parent="0KHWkNFv0CEmFGJm_ItT-257" edge="1">
          <mxGeometry width="50" height="50" relative="1" as="geometry">
            <mxPoint x="77" y="39" as="sourcePoint" />
            <mxPoint x="120" y="39" as="targetPoint" />
          </mxGeometry>
        </mxCell>
        <mxCell id="0KHWkNFv0CEmFGJm_ItT-232" value="" style="endArrow=none;html=1;rounded=0;entryX=0.001;entryY=0.411;entryDx=0;entryDy=0;dashed=1;endFill=0;entryPerimeter=0;" parent="0KHWkNFv0CEmFGJm_ItT-257" edge="1">
          <mxGeometry width="50" height="50" relative="1" as="geometry">
            <mxPoint x="72" y="86" as="sourcePoint" />
            <mxPoint x="91.09591" y="85.49516000000006" as="targetPoint" />
          </mxGeometry>
        </mxCell>
        <mxCell id="0KHWkNFv0CEmFGJm_ItT-4" value="" style="endArrow=classic;html=1;rounded=0;entryX=0;entryY=0.5;entryDx=0;entryDy=0;dashed=1;" parent="0KHWkNFv0CEmFGJm_ItT-257" edge="1">
          <mxGeometry width="50" height="50" relative="1" as="geometry">
            <mxPoint x="78" y="93" as="sourcePoint" />
            <mxPoint x="121" y="93" as="targetPoint" />
          </mxGeometry>
        </mxCell>
        <mxCell id="0KHWkNFv0CEmFGJm_ItT-5" value="" style="endArrow=classic;html=1;rounded=0;entryX=0;entryY=0.5;entryDx=0;entryDy=0;dashed=1;" parent="0KHWkNFv0CEmFGJm_ItT-257" edge="1">
          <mxGeometry width="50" height="50" relative="1" as="geometry">
            <mxPoint x="70" y="32" as="sourcePoint" />
            <mxPoint x="113" y="32" as="targetPoint" />
          </mxGeometry>
        </mxCell>
        <mxCell id="0KHWkNFv0CEmFGJm_ItT-6" value="" style="rounded=1;whiteSpace=wrap;html=1;dashed=1;rotation=0;" parent="0KHWkNFv0CEmFGJm_ItT-257" vertex="1">
          <mxGeometry x="106" y="18" width="102.67" height="115.56" as="geometry" />
        </mxCell>
        <mxCell id="0KHWkNFv0CEmFGJm_ItT-7" style="edgeStyle=orthogonalEdgeStyle;rounded=0;orthogonalLoop=1;jettySize=auto;html=1;exitX=1;exitY=0.5;exitDx=0;exitDy=0;endArrow=none;endFill=0;dashed=1;entryX=0.5;entryY=1;entryDx=0;entryDy=0;" parent="0KHWkNFv0CEmFGJm_ItT-257" target="0KHWkNFv0CEmFGJm_ItT-28" edge="1">
          <mxGeometry relative="1" as="geometry">
            <mxPoint x="221" y="73" as="targetPoint" />
            <mxPoint x="199" y="73" as="sourcePoint" />
          </mxGeometry>
        </mxCell>
        <mxCell id="0KHWkNFv0CEmFGJm_ItT-8" value="" style="rounded=1;whiteSpace=wrap;html=1;dashed=1;rotation=0;" parent="0KHWkNFv0CEmFGJm_ItT-257" vertex="1">
          <mxGeometry x="99" y="10" width="99.67" height="115.56" as="geometry" />
        </mxCell>
        <mxCell id="0KHWkNFv0CEmFGJm_ItT-9" value="" style="rounded=1;whiteSpace=wrap;html=1;rotation=0;" parent="0KHWkNFv0CEmFGJm_ItT-257" vertex="1">
          <mxGeometry x="91" y="3" width="95.91" height="115.56" as="geometry" />
        </mxCell>
        <mxCell id="0KHWkNFv0CEmFGJm_ItT-10" value="" style="rounded=1;whiteSpace=wrap;html=1;fillColor=#dae8fc;strokeColor=none;rotation=0;" parent="0KHWkNFv0CEmFGJm_ItT-257" vertex="1">
          <mxGeometry x="101" y="11" width="14.444285714285716" height="28.88888888888889" as="geometry" />
        </mxCell>
        <mxCell id="0KHWkNFv0CEmFGJm_ItT-11" value="" style="rounded=1;whiteSpace=wrap;html=1;fillColor=#dae8fc;strokeColor=none;rotation=0;" parent="0KHWkNFv0CEmFGJm_ItT-257" vertex="1">
          <mxGeometry x="101" y="47" width="14.444285714285716" height="28.88888888888889" as="geometry" />
        </mxCell>
        <mxCell id="0KHWkNFv0CEmFGJm_ItT-12" value="" style="rounded=1;whiteSpace=wrap;html=1;fillColor=#dae8fc;strokeColor=none;rotation=0;" parent="0KHWkNFv0CEmFGJm_ItT-257" vertex="1">
          <mxGeometry x="101" y="83" width="14.444285714285716" height="28.88888888888889" as="geometry" />
        </mxCell>
        <mxCell id="0KHWkNFv0CEmFGJm_ItT-16" value="" style="endArrow=none;html=1;rounded=0;" parent="0KHWkNFv0CEmFGJm_ItT-257" edge="1">
          <mxGeometry width="50" height="50" relative="1" as="geometry">
            <mxPoint x="70" y="32" as="sourcePoint" />
            <mxPoint x="62" y="25" as="targetPoint" />
          </mxGeometry>
        </mxCell>
        <mxCell id="0KHWkNFv0CEmFGJm_ItT-17" value="" style="endArrow=none;html=1;rounded=0;dashed=1;" parent="0KHWkNFv0CEmFGJm_ItT-257" edge="1">
          <mxGeometry width="50" height="50" relative="1" as="geometry">
            <mxPoint x="77" y="39" as="sourcePoint" />
            <mxPoint x="70" y="32" as="targetPoint" />
          </mxGeometry>
        </mxCell>
        <mxCell id="0KHWkNFv0CEmFGJm_ItT-23" value="" style="rounded=1;whiteSpace=wrap;html=1;fillColor=#dae8fc;strokeColor=none;rotation=0;" parent="0KHWkNFv0CEmFGJm_ItT-257" vertex="1">
          <mxGeometry x="154" y="21" width="14.444285714285716" height="43.333333333333336" as="geometry" />
        </mxCell>
        <mxCell id="0KHWkNFv0CEmFGJm_ItT-24" value="" style="verticalLabelPosition=bottom;verticalAlign=top;html=1;shape=mxgraph.flowchart.summing_function;rotation=45;" parent="0KHWkNFv0CEmFGJm_ItT-257" vertex="1">
          <mxGeometry x="174" y="58" width="7.222142857142858" height="7.222222222222222" as="geometry" />
        </mxCell>
        <mxCell id="0KHWkNFv0CEmFGJm_ItT-55" style="edgeStyle=orthogonalEdgeStyle;rounded=0;orthogonalLoop=1;jettySize=auto;html=1;exitX=1;exitY=0.5;exitDx=0;exitDy=0;entryX=0.855;entryY=0.855;entryDx=0;entryDy=0;entryPerimeter=0;endSize=1;endArrow=classicThin;endFill=1;" parent="0KHWkNFv0CEmFGJm_ItT-257" source="0KHWkNFv0CEmFGJm_ItT-12" target="0KHWkNFv0CEmFGJm_ItT-24" edge="1">
          <mxGeometry relative="1" as="geometry">
            <Array as="points">
              <mxPoint x="152" y="98" />
              <mxPoint x="195" y="98" />
            </Array>
          </mxGeometry>
        </mxCell>
        <mxCell id="0KHWkNFv0CEmFGJm_ItT-41" style="edgeStyle=orthogonalEdgeStyle;rounded=0;orthogonalLoop=1;jettySize=auto;html=1;exitX=1;exitY=0.5;exitDx=0;exitDy=0;entryX=0.145;entryY=0.145;entryDx=0;entryDy=0;entryPerimeter=0;endArrow=classicThin;endFill=1;endSize=1;" parent="0KHWkNFv0CEmFGJm_ItT-257" source="0KHWkNFv0CEmFGJm_ItT-23" target="0KHWkNFv0CEmFGJm_ItT-24" edge="1">
          <mxGeometry relative="1" as="geometry">
            <Array as="points">
              <mxPoint x="179" y="43" />
              <mxPoint x="179" y="58" />
            </Array>
          </mxGeometry>
        </mxCell>
        <mxCell id="0KHWkNFv0CEmFGJm_ItT-26" value="" style="endArrow=none;html=1;rounded=0;exitX=0.997;exitY=0.572;exitDx=0;exitDy=0;dashed=1;entryX=0.75;entryY=1;entryDx=0;entryDy=0;exitPerimeter=0;" parent="0KHWkNFv0CEmFGJm_ItT-257" source="0KHWkNFv0CEmFGJm_ItT-6" target="0KHWkNFv0CEmFGJm_ItT-28" edge="1">
          <mxGeometry width="50" height="50" relative="1" as="geometry">
            <mxPoint x="207" y="83" as="sourcePoint" />
            <mxPoint x="228" y="83" as="targetPoint" />
            <Array as="points" />
          </mxGeometry>
        </mxCell>
        <mxCell id="0KHWkNFv0CEmFGJm_ItT-28" value="&lt;font style=&quot;font-size: 10px;&quot;&gt;Concat&lt;/font&gt;" style="rounded=1;whiteSpace=wrap;html=1;fillColor=#dae8fc;strokeColor=none;rotation=90;" parent="0KHWkNFv0CEmFGJm_ItT-257" vertex="1">
          <mxGeometry x="205" y="65" width="45" height="15.61" as="geometry" />
        </mxCell>
        <mxCell id="0KHWkNFv0CEmFGJm_ItT-29" style="edgeStyle=orthogonalEdgeStyle;rounded=0;orthogonalLoop=1;jettySize=auto;html=1;exitX=0.855;exitY=0.145;exitDx=0;exitDy=0;endArrow=none;endFill=0;entryX=0.25;entryY=1;entryDx=0;entryDy=0;exitPerimeter=0;" parent="0KHWkNFv0CEmFGJm_ItT-257" source="0KHWkNFv0CEmFGJm_ItT-24" target="0KHWkNFv0CEmFGJm_ItT-28" edge="1">
          <mxGeometry relative="1" as="geometry">
            <mxPoint x="218" y="62" as="targetPoint" />
          </mxGeometry>
        </mxCell>
        <mxCell id="0KHWkNFv0CEmFGJm_ItT-34" value="" style="rounded=1;whiteSpace=wrap;html=1;fillColor=#dae8fc;strokeColor=none;rotation=0;" parent="0KHWkNFv0CEmFGJm_ItT-257" vertex="1">
          <mxGeometry x="123" y="12" width="21.11" height="60" as="geometry" />
        </mxCell>
        <mxCell id="0KHWkNFv0CEmFGJm_ItT-52" style="edgeStyle=orthogonalEdgeStyle;rounded=0;orthogonalLoop=1;jettySize=auto;html=1;exitX=1;exitY=0.5;exitDx=0;exitDy=0;entryX=0;entryY=0.229;entryDx=0;entryDy=0;entryPerimeter=0;endSize=1;endArrow=classicThin;endFill=1;" parent="0KHWkNFv0CEmFGJm_ItT-257" source="0KHWkNFv0CEmFGJm_ItT-10" target="0KHWkNFv0CEmFGJm_ItT-34" edge="1">
          <mxGeometry relative="1" as="geometry" />
        </mxCell>
        <mxCell id="0KHWkNFv0CEmFGJm_ItT-54" style="edgeStyle=orthogonalEdgeStyle;rounded=0;orthogonalLoop=1;jettySize=auto;html=1;exitX=1;exitY=0.5;exitDx=0;exitDy=0;entryX=-0.003;entryY=0.829;entryDx=0;entryDy=0;entryPerimeter=0;endSize=1;endArrow=classicThin;endFill=1;" parent="0KHWkNFv0CEmFGJm_ItT-257" source="0KHWkNFv0CEmFGJm_ItT-11" target="0KHWkNFv0CEmFGJm_ItT-34" edge="1">
          <mxGeometry relative="1" as="geometry" />
        </mxCell>
        <mxCell id="0KHWkNFv0CEmFGJm_ItT-36" value="" style="endArrow=none;html=1;rounded=0;" parent="0KHWkNFv0CEmFGJm_ItT-257" edge="1">
          <mxGeometry width="50" height="50" relative="1" as="geometry">
            <mxPoint x="60" y="32" as="sourcePoint" />
            <mxPoint x="70" y="32" as="targetPoint" />
          </mxGeometry>
        </mxCell>
        <mxCell id="0KHWkNFv0CEmFGJm_ItT-39" style="edgeStyle=orthogonalEdgeStyle;rounded=0;orthogonalLoop=1;jettySize=auto;html=1;endSize=1;endArrow=classicThin;endFill=1;" parent="0KHWkNFv0CEmFGJm_ItT-257" edge="1">
          <mxGeometry relative="1" as="geometry">
            <mxPoint x="272" y="73" as="targetPoint" />
            <mxPoint x="262" y="73" as="sourcePoint" />
          </mxGeometry>
        </mxCell>
        <mxCell id="0KHWkNFv0CEmFGJm_ItT-31" value="&lt;font style=&quot;font-size: 10px;&quot;&gt;Linear&lt;/font&gt;" style="rounded=1;whiteSpace=wrap;html=1;fillColor=#dae8fc;strokeColor=none;rotation=90;" parent="0KHWkNFv0CEmFGJm_ItT-257" vertex="1">
          <mxGeometry x="231" y="65" width="45" height="15.61" as="geometry" />
        </mxCell>
        <mxCell id="0KHWkNFv0CEmFGJm_ItT-32" style="edgeStyle=orthogonalEdgeStyle;rounded=0;orthogonalLoop=1;jettySize=auto;html=1;exitX=0.5;exitY=0;exitDx=0;exitDy=0;entryX=0.5;entryY=1;entryDx=0;entryDy=0;endSize=1;endArrow=classicThin;endFill=1;" parent="0KHWkNFv0CEmFGJm_ItT-257" source="0KHWkNFv0CEmFGJm_ItT-28" target="0KHWkNFv0CEmFGJm_ItT-31" edge="1">
          <mxGeometry relative="1" as="geometry">
            <mxPoint x="265" y="127" as="sourcePoint" />
          </mxGeometry>
        </mxCell>
        <mxCell id="0KHWkNFv0CEmFGJm_ItT-46" style="edgeStyle=orthogonalEdgeStyle;rounded=0;orthogonalLoop=1;jettySize=auto;html=1;exitX=1;exitY=0.5;exitDx=0;exitDy=0;entryX=0;entryY=0.5;entryDx=0;entryDy=0;endSize=1;endArrow=classicThin;endFill=1;" parent="0KHWkNFv0CEmFGJm_ItT-257" source="0KHWkNFv0CEmFGJm_ItT-34" target="0KHWkNFv0CEmFGJm_ItT-23" edge="1">
          <mxGeometry relative="1" as="geometry">
            <mxPoint x="166" y="42" as="sourcePoint" />
          </mxGeometry>
        </mxCell>
        <mxCell id="0KHWkNFv0CEmFGJm_ItT-19" value="&lt;font style=&quot;font-size: 10px;&quot;&gt;Query&lt;/font&gt;" style="text;html=1;align=center;verticalAlign=middle;resizable=0;points=[];autosize=1;strokeColor=none;fillColor=none;rotation=90;" parent="0KHWkNFv0CEmFGJm_ItT-257" vertex="1">
          <mxGeometry x="84" y="10" width="50" height="30" as="geometry" />
        </mxCell>
        <mxCell id="0KHWkNFv0CEmFGJm_ItT-35" value="&lt;p style=&quot;line-height: 70%;&quot;&gt;&lt;font style=&quot;font-size: 10px;&quot;&gt;Scale &lt;br&gt;Dot-Product&lt;br&gt;&lt;/font&gt;&lt;/p&gt;" style="text;html=1;align=center;verticalAlign=middle;resizable=0;points=[];autosize=1;strokeColor=none;fillColor=none;rotation=90;" parent="0KHWkNFv0CEmFGJm_ItT-257" vertex="1">
          <mxGeometry x="95" y="11" width="80" height="60" as="geometry" />
        </mxCell>
        <mxCell id="0KHWkNFv0CEmFGJm_ItT-18" value="&lt;font style=&quot;font-size: 10px;&quot;&gt;Key&lt;/font&gt;" style="text;html=1;align=center;verticalAlign=middle;resizable=0;autosize=1;strokeColor=none;fillColor=none;rotation=90;" parent="0KHWkNFv0CEmFGJm_ItT-257" vertex="1">
          <mxGeometry x="89" y="46" width="40" height="30" as="geometry" />
        </mxCell>
        <mxCell id="0KHWkNFv0CEmFGJm_ItT-20" value="&lt;font style=&quot;font-size: 10px;&quot;&gt;Value&lt;/font&gt;" style="text;html=1;align=center;verticalAlign=middle;resizable=0;points=[];autosize=1;strokeColor=none;fillColor=none;rotation=90;" parent="0KHWkNFv0CEmFGJm_ItT-257" vertex="1">
          <mxGeometry x="84" y="83" width="50" height="30" as="geometry" />
        </mxCell>
        <mxCell id="0KHWkNFv0CEmFGJm_ItT-38" value="&lt;font style=&quot;font-size: 10px;&quot;&gt;Softmax&lt;/font&gt;" style="text;html=1;align=center;verticalAlign=middle;resizable=0;points=[];autosize=1;strokeColor=none;fillColor=none;rotation=90;" parent="0KHWkNFv0CEmFGJm_ItT-257" vertex="1">
          <mxGeometry x="131" y="26" width="60" height="30" as="geometry" />
        </mxCell>
        <mxCell id="0KHWkNFv0CEmFGJm_ItT-230" value="" style="endArrow=classicThin;html=1;rounded=0;entryX=0;entryY=0.5;entryDx=0;entryDy=0;exitX=0.37;exitY=0.03;exitDx=0;exitDy=0;exitPerimeter=0;endSize=1;endFill=1;" parent="0KHWkNFv0CEmFGJm_ItT-257" edge="1">
          <mxGeometry width="50" height="50" relative="1" as="geometry">
            <mxPoint x="62.09999999999991" y="24.200000000000045" as="sourcePoint" />
            <mxPoint x="100" y="24" as="targetPoint" />
          </mxGeometry>
        </mxCell>
        <mxCell id="0KHWkNFv0CEmFGJm_ItT-235" value="" style="endArrow=none;html=1;rounded=0;" parent="0KHWkNFv0CEmFGJm_ItT-257" edge="1">
          <mxGeometry width="50" height="50" relative="1" as="geometry">
            <mxPoint x="71" y="86" as="sourcePoint" />
            <mxPoint x="63" y="79" as="targetPoint" />
          </mxGeometry>
        </mxCell>
        <mxCell id="0KHWkNFv0CEmFGJm_ItT-236" value="" style="endArrow=none;html=1;rounded=0;dashed=1;" parent="0KHWkNFv0CEmFGJm_ItT-257" edge="1">
          <mxGeometry width="50" height="50" relative="1" as="geometry">
            <mxPoint x="78" y="93" as="sourcePoint" />
            <mxPoint x="71" y="86" as="targetPoint" />
          </mxGeometry>
        </mxCell>
        <mxCell id="0KHWkNFv0CEmFGJm_ItT-241" value="" style="endArrow=none;html=1;rounded=0;entryX=0;entryY=0.5;entryDx=0;entryDy=0;endFill=0;" parent="0KHWkNFv0CEmFGJm_ItT-257" edge="1">
          <mxGeometry width="50" height="50" relative="1" as="geometry">
            <mxPoint x="61" y="86" as="sourcePoint" />
            <mxPoint x="70" y="86" as="targetPoint" />
          </mxGeometry>
        </mxCell>
        <mxCell id="0KHWkNFv0CEmFGJm_ItT-248" value="" style="group;rotation=90;" parent="0KHWkNFv0CEmFGJm_ItT-257" vertex="1" connectable="0">
          <mxGeometry x="79" y="76" width="36.17" height="6" as="geometry" />
        </mxCell>
        <mxCell id="0KHWkNFv0CEmFGJm_ItT-243" value="" style="endArrow=none;html=1;rounded=0;endSize=1;" parent="0KHWkNFv0CEmFGJm_ItT-248" edge="1">
          <mxGeometry width="50" height="50" relative="1" as="geometry">
            <mxPoint x="15" y="-15" as="sourcePoint" />
            <mxPoint x="15" y="21" as="targetPoint" />
          </mxGeometry>
        </mxCell>
        <mxCell id="0KHWkNFv0CEmFGJm_ItT-246" value="" style="endArrow=classicThin;html=1;rounded=0;endSize=1;endFill=1;" parent="0KHWkNFv0CEmFGJm_ItT-248" edge="1">
          <mxGeometry width="50" height="50" relative="1" as="geometry">
            <mxPoint x="15" y="-15" as="sourcePoint" />
            <mxPoint x="21" y="-15" as="targetPoint" />
          </mxGeometry>
        </mxCell>
        <mxCell id="0KHWkNFv0CEmFGJm_ItT-247" value="" style="endArrow=classicThin;html=1;rounded=0;endSize=1;endFill=1;" parent="0KHWkNFv0CEmFGJm_ItT-248" edge="1">
          <mxGeometry width="50" height="50" relative="1" as="geometry">
            <mxPoint x="15" y="21" as="sourcePoint" />
            <mxPoint x="21" y="21" as="targetPoint" />
          </mxGeometry>
        </mxCell>
        <mxCell id="0KHWkNFv0CEmFGJm_ItT-252" value="$$X$$" style="text;html=1;strokeColor=none;fillColor=none;align=center;verticalAlign=middle;whiteSpace=wrap;rounded=0;" parent="0KHWkNFv0CEmFGJm_ItT-257" vertex="1">
          <mxGeometry x="21" y="17.559999999999945" width="60" height="30" as="geometry" />
        </mxCell>
        <mxCell id="0KHWkNFv0CEmFGJm_ItT-233" value="" style="endArrow=none;html=1;rounded=0;endSize=1;endFill=0;" parent="0KHWkNFv0CEmFGJm_ItT-257" edge="1">
          <mxGeometry width="50" height="50" relative="1" as="geometry">
            <mxPoint x="63" y="78.86000000000001" as="sourcePoint" />
            <mxPoint x="93" y="78.86000000000001" as="targetPoint" />
          </mxGeometry>
        </mxCell>
      </root>
    </mxGraphModel>
  </diagram>
</mxfile>
